<?xml version="1.0" encoding="UTF-8"?>
<svg version="1.1" xmlns="http://www.w3.org/2000/svg" width="1500" height="939">
<path d="M0 0 C202.95 0 405.9 0 615 0 C615 83.16 615 166.32 615 252 C612.69 252 610.38 252 608 252 C608 171.15 608 90.3 608 7 C409.34 7 210.68 7 6 7 C6 205.33 6 403.66 6 608 C204.66 608 403.32 608 608 608 C608 527.15 608 446.3 608 363 C610.31 363 612.62 363 615 363 C615 446.16 615 529.32 615 615 C412.05 615 209.1 615 0 615 C0 412.05 0 209.1 0 0 Z " fill="#85C131" transform="translate(14,162)"/>
<path d="M0 0 C0.99 0.33 1.98 0.66 3 1 C4.35917857 0.03542166 5.69084721 -0.96854629 7 -2 C11.42514411 -3.73844947 16.57336367 -3.75434762 21.0859375 -2.3515625 C26.24940482 -0.03690474 29.85421808 3.30853977 33 8 C34.00122171 11.00366514 34.12112011 12.97739593 34.11352539 16.11401367 C34.11341209 17.67529243 34.11341209 17.67529243 34.11329651 19.26811218 C34.10813522 20.39006485 34.10297394 21.51201752 34.09765625 22.66796875 C34.0962413 23.81791824 34.09482635 24.96786774 34.09336853 26.15266418 C34.08776429 29.83096908 34.07521104 33.50921345 34.0625 37.1875 C34.05748555 39.67903558 34.05292255 42.17057211 34.04882812 44.66210938 C34.03779347 50.77476296 34.02052595 56.88737121 34 63 C29.71 63 25.42 63 21 63 C20.970271 60.84247192 20.970271 60.84247192 20.93994141 58.64135742 C20.86396176 53.31305204 20.77523255 47.98502249 20.68261719 42.65698242 C20.64429584 40.34942056 20.60944859 38.04179832 20.578125 35.73413086 C20.53254318 32.42019037 20.47453712 29.10666673 20.4140625 25.79296875 C20.40251129 24.7585112 20.39096008 23.72405365 20.37905884 22.6582489 C20.35918915 21.6974794 20.33931946 20.7367099 20.31884766 19.74682617 C20.30552399 18.90077316 20.29220032 18.05472015 20.2784729 17.18302917 C20.12741711 14.70908991 20.12741711 14.70908991 18 12 C16.02252878 11.63702064 16.02252878 11.63702064 13.875 11.8125 C12.59625 11.874375 11.3175 11.93625 10 12 C9.98969254 12.6241832 9.97938507 13.24836639 9.96876526 13.89146423 C9.86093467 20.36354552 9.74631853 26.83548093 9.62768555 33.30737305 C9.58426122 35.72563639 9.54259188 38.1439319 9.50268555 40.56225586 C9.44516397 44.02988396 9.38141813 47.49734903 9.31640625 50.96484375 C9.29133751 52.59763527 9.29133751 52.59763527 9.26576233 54.26341248 C9.24581711 55.26437454 9.22587189 56.26533661 9.20532227 57.29663086 C9.18977798 58.18265488 9.1742337 59.06867889 9.15821838 59.98155212 C9 62 9 62 8 63 C6.00200428 63.09873816 4.00042842 63.12971799 2 63.125 C0.906875 63.12757813 -0.18625 63.13015625 -1.3125 63.1328125 C-4 63 -4 63 -5 62 C-5.12263388 60.43551617 -5.17779522 58.86567228 -5.20532227 57.29663086 C-5.22526749 56.29566879 -5.24521271 55.29470673 -5.26576233 54.26341248 C-5.28247482 53.1748848 -5.29918732 52.08635712 -5.31640625 50.96484375 C-5.33718735 49.85645645 -5.35796844 48.74806915 -5.37937927 47.60609436 C-5.44499623 44.04996192 -5.50381596 40.49375297 -5.5625 36.9375 C-5.60567368 34.53319507 -5.64928758 32.12889801 -5.69335938 29.72460938 C-5.80068992 23.81648815 -5.90243331 17.90829009 -6 12 C-7.27875 11.938125 -8.5575 11.87625 -9.875 11.8125 C-10.59429687 11.77769531 -11.31359375 11.74289062 -12.0546875 11.70703125 C-12.69664062 11.80371094 -13.33859375 11.90039062 -14 12 C-16.12794168 15.19191253 -16.26099543 16.07320984 -16.31884766 19.74682617 C-16.33871735 20.70759567 -16.35858704 21.66836517 -16.37905884 22.6582489 C-16.39638565 24.20993523 -16.39638565 24.20993523 -16.4140625 25.79296875 C-16.43342865 26.85413406 -16.4527948 27.91529938 -16.4727478 29.00862122 C-16.53257833 32.40149878 -16.57894321 35.7944102 -16.625 39.1875 C-16.66317655 41.48634301 -16.70222809 43.78517167 -16.7421875 46.08398438 C-16.83828287 51.72253983 -16.92230134 57.36116224 -17 63 C-21.29 63 -25.58 63 -30 63 C-30.09907944 55.72261501 -30.17157001 48.44562508 -30.21972656 41.16772461 C-30.23980771 38.69337115 -30.26707823 36.21906495 -30.30175781 33.74487305 C-30.35042778 30.18266112 -30.37300454 26.62107819 -30.390625 23.05859375 C-30.41127014 21.95728622 -30.43191528 20.8559787 -30.45318604 19.72129822 C-30.45532705 12.34739491 -29.4912557 7.90199167 -24.47265625 2.29296875 C-16.24110307 -4.1600217 -9.14128808 -4.48102357 0 0 Z " fill="#85C231" transform="translate(379,439)"/>
<path d="M0 0 C6.59355588 0.05849796 6.59355588 0.05849796 9.85839844 2.91113281 C11.94611159 5.98538245 13.64897143 9.0874403 15.3046875 12.4140625 C15.88992188 13.48914063 16.47515625 14.56421875 17.078125 15.671875 C18.89829075 19.02481192 20.66348701 22.4073876 22.4296875 25.7890625 C25.0696875 30.4090625 27.7096875 35.0290625 30.4296875 39.7890625 C30.7596875 26.9190625 31.0896875 14.0490625 31.4296875 0.7890625 C35.7196875 0.7890625 40.0096875 0.7890625 44.4296875 0.7890625 C44.4296875 22.2390625 44.4296875 43.6890625 44.4296875 65.7890625 C39.8096875 65.7890625 35.1896875 65.7890625 30.4296875 65.7890625 C27.17447682 62.23402979 25.65917659 60.04889225 23.6796875 55.8515625 C22.61898357 53.83958325 21.55777927 51.82786771 20.49609375 49.81640625 C19.9870752 48.80562012 19.47805664 47.79483398 18.95361328 46.75341797 C16.69484927 42.35964791 14.15983693 38.14727844 11.6171875 33.9140625 C10.2353125 31.5628125 8.8534375 29.2115625 7.4296875 26.7890625 C7.0996875 39.6590625 6.7696875 52.5290625 6.4296875 65.7890625 C2.1396875 65.7890625 -2.1503125 65.7890625 -6.5703125 65.7890625 C-8.36127295 63.99810205 -7.69798041 61.32573465 -7.69970703 58.90820312 C-7.70285919 57.65019897 -7.70601135 56.39219482 -7.70925903 55.09606934 C-7.70746925 53.71248337 -7.7054183 52.32889772 -7.703125 50.9453125 C-7.70379809 49.53666161 -7.70476815 48.12801084 -7.70602417 46.71936035 C-7.70750092 43.76357927 -7.70534733 40.80782836 -7.70068359 37.85205078 C-7.69498631 34.05531666 -7.69826543 30.25865322 -7.70425606 26.46192169 C-7.70786229 23.55209822 -7.7067228 20.64229162 -7.70412827 17.73246765 C-7.70345917 16.3321685 -7.70428682 14.93186783 -7.70660782 13.53157043 C-7.70913533 11.57768786 -7.70460283 9.62379995 -7.69970703 7.66992188 C-7.69891144 6.55597046 -7.69811584 5.44201904 -7.69729614 4.29431152 C-7.45320434 -0.52135402 -4.25167209 0.3260122 0 0 Z " fill="#85C131" transform="translate(492.5703125,436.2109375)"/>
<path d="M0 0 C7.10073473 5.93000427 11.51320812 14.16368866 12.4375 23.36328125 C12.8727488 32.97955943 10.04853194 41.61040557 3.9453125 49.09375 C-2.92283497 56.05347277 -11.45933807 59.88412923 -21.1875 60.3125 C-30.38880114 60.01651409 -39.33475353 56.50307392 -45.8125 49.875 C-52.49190007 41.25514181 -55.96060834 32.864037 -54.8125 21.875 C-52.79630473 10.98076843 -46.65074434 3.33239945 -37.8125 -3.125 C-25.40434519 -10.12381459 -11.33082242 -8.04184208 0 0 Z M-37.8125 14.875 C-41.49983254 20.21527472 -41.49562999 25.60517681 -40.8125 31.875 C-38.78356455 37.64144812 -35.18578296 41.19633644 -30.25 44.6875 C-24.27542621 46.75144367 -18.10541605 47.25070715 -12.17578125 44.7734375 C-5.64954876 40.73903924 -2.68884782 36.49723768 -0.875 29 C-0.39409429 23.10317998 -2.49222826 17.99686529 -5.5625 13.0625 C-10.49528397 8.2667378 -14.04917635 6.62358193 -20.875 6.4375 C-28.48025779 6.72198595 -32.83818376 9.09403788 -37.8125 14.875 Z " fill="#85C231" transform="translate(1200.8125,443.125)"/>
<path d="M0 0 C7.3766784 6.01622542 11.87076573 14.53663053 13.00390625 23.9375 C13.42313218 33.45798564 10.47553292 42.1374119 4.4453125 49.53125 C-2.42283497 56.49097277 -10.95933807 60.32162923 -20.6875 60.75 C-29.22883493 60.48682161 -38.14162921 57.37953402 -44.3125 51.3125 C-50.9726421 43.52845892 -55.03354887 34.98790462 -54.59375 24.59765625 C-53.21484458 13.39404973 -47.83845399 5.91499294 -39.328125 -1.21484375 C-27.35699743 -9.96119083 -11.76137393 -8.04253951 0 0 Z M-37.3125 15.3125 C-40.99983254 20.65277472 -40.99562999 26.04267681 -40.3125 32.3125 C-38.28356455 38.07894812 -34.68578296 41.63383644 -29.75 45.125 C-23.77542621 47.18894367 -17.60541605 47.68820715 -11.67578125 45.2109375 C-5.14954876 41.17653924 -2.18884782 36.93473768 -0.375 29.4375 C0.10678618 23.37404469 -1.95828496 17.73152226 -5.625 12.9375 C-10.30887308 8.3625542 -13.83541501 7.12965085 -20.3125 6.9375 C-27.96816896 7.1551519 -32.30452055 9.49241578 -37.3125 15.3125 Z " fill="#85C131" transform="translate(1053.3125,442.6875)"/>
<path d="M0 0 C7.3766784 6.01622542 11.87076573 14.53663053 13.00390625 23.9375 C13.42313218 33.45798564 10.47553292 42.1374119 4.4453125 49.53125 C-2.42283497 56.49097277 -10.95933807 60.32162923 -20.6875 60.75 C-32.06847015 60.33730094 -39.63912323 55.45830482 -47.3125 47.3125 C-52.56663025 40.98059945 -54.94081795 32.79713648 -54.59375 24.59765625 C-53.21484458 13.39404973 -47.83845399 5.91499294 -39.328125 -1.21484375 C-27.35699743 -9.96119083 -11.76137393 -8.04253951 0 0 Z M-37.3125 15.3125 C-40.99983254 20.65277472 -40.99562999 26.04267681 -40.3125 32.3125 C-38.28356455 38.07894812 -34.68578296 41.63383644 -29.75 45.125 C-23.95155877 47.12809788 -17.78927149 47.54564063 -11.93359375 45.46875 C-6.14717925 42.21869556 -2.58602757 37.46270161 -0.6484375 31.1484375 C0.47355017 24.9225059 -1.15044328 19.71159386 -4.3125 14.3125 C-7.72619308 10.4163383 -11.93456953 7.56751483 -17.1171875 7.01171875 C-26.09130728 6.97746638 -31.27330892 8.29398064 -37.3125 15.3125 Z " fill="#85C131" transform="translate(821.3125,442.6875)"/>
<path d="M0 0 C33.88235294 0 33.88235294 0 43.25 6.125 C48.85288177 11.98255822 51.87160806 18.91130763 52 27 C51.39035855 34.0870819 48.52141112 39.55819985 44 45 C43.01 45.66 42.02 46.32 41 47 C41.56284288 51.3620323 43.25588413 54.90621046 45.16015625 58.81640625 C46 61 46 61 46 65 C41.71 65 37.42 65 33 65 C32.29875 63.040625 31.5975 61.08125 30.875 59.0625 C29.39990999 55.67939852 29.39990999 55.67939852 27 53 C22.27211471 51.62891327 17.88629357 51.65193525 13 52 C13 56.29 13 60.58 13 65 C8.71 65 4.42 65 0 65 C0 43.55 0 22.1 0 0 Z M13 14 C13 21.92 13 29.84 13 38 C17.0528125 38.0928125 17.0528125 38.0928125 21.1875 38.1875 C22.02949951 38.21481201 22.87149902 38.24212402 23.73901367 38.27026367 C28.32895154 38.32100232 31.27607043 37.97773575 35 35 C38.08815636 30.6765811 38.41270088 27.21854112 37.65625 22.12109375 C36.63989054 18.83607479 34.63074582 17.10459666 32 15 C31.67 14.67 31.34 14.34 31 14 C29.65732587 13.91368126 28.31025678 13.89293527 26.96484375 13.90234375 C26.23644287 13.90484131 25.50804199 13.90733887 24.75756836 13.90991211 C23.8269458 13.91901611 22.89632324 13.92812012 21.9375 13.9375 C18.988125 13.958125 16.03875 13.97875 13 14 Z " fill="#85C131" transform="translate(842,437)"/>
<path d="M0 0 C5.93302919 4.1844533 10.20164344 9.61449619 12.29296875 16.6171875 C12.68329162 20.13315746 12.64364592 23.61061748 12.5859375 27.14453125 C12.58169266 28.13344864 12.57744781 29.12236603 12.57307434 30.14125061 C12.55637004 33.27934759 12.5187329 36.41678678 12.48046875 39.5546875 C12.46541126 41.69074589 12.45172472 43.82681441 12.43945312 45.96289062 C12.40649349 51.18124049 12.35476811 56.39910272 12.29296875 61.6171875 C8.00296875 61.6171875 3.71296875 61.6171875 -0.70703125 61.6171875 C-0.70703125 57.3271875 -0.70703125 53.0371875 -0.70703125 48.6171875 C-8.95703125 48.6171875 -17.20703125 48.6171875 -25.70703125 48.6171875 C-25.70703125 52.5771875 -25.70703125 56.5371875 -25.70703125 60.6171875 C-26.70703125 61.6171875 -26.70703125 61.6171875 -29.39453125 61.75 C-30.48765625 61.74742187 -31.58078125 61.74484375 -32.70703125 61.7421875 C-33.80015625 61.74476563 -34.89328125 61.74734375 -36.01953125 61.75 C-38.70703125 61.6171875 -38.70703125 61.6171875 -39.70703125 60.6171875 C-39.83325746 57.61988873 -39.89576182 54.64698044 -39.91015625 51.6484375 C-39.91585632 50.73896362 -39.9215564 49.82948975 -39.9274292 48.89245605 C-39.93690045 46.95891489 -39.94342157 45.02535742 -39.94726562 43.09179688 C-39.95689971 40.15725589 -39.98787246 37.22343674 -40.01953125 34.2890625 C-40.02606837 32.40885832 -40.03131605 30.52864913 -40.03515625 28.6484375 C-40.04750305 27.77932739 -40.05984985 26.91021729 -40.0725708 26.01477051 C-40.04013873 16.96992312 -37.84819578 9.96507776 -31.609375 3.34375 C-22.62248284 -4.81273118 -10.51237443 -5.91634427 0 0 Z M-23.70703125 14.6171875 C-26.31782048 18.4146991 -25.93277136 22.44710387 -25.83203125 26.8671875 C-25.79078125 29.4246875 -25.74953125 31.9821875 -25.70703125 34.6171875 C-17.45703125 34.6171875 -9.20703125 34.6171875 -0.70703125 34.6171875 C-0.10542235 22.44129007 -0.10542235 22.44129007 -5.76953125 12.1796875 C-11.98626495 8.87291425 -18.89074188 9.19886196 -23.70703125 14.6171875 Z " fill="#85C231" transform="translate(462.70703125,440.3828125)"/>
<path d="M0 0 C1.60154021 0.02009217 3.20310471 0.03833815 4.8046875 0.0546875 C8.70373081 0.09847729 12.60159466 0.16735279 16.5 0.25 C16.5 4.87 16.5 9.49 16.5 14.25 C15.50556885 14.27505615 14.5111377 14.3001123 13.48657227 14.32592773 C9.80951253 14.41984882 6.1326485 14.52010619 2.45581055 14.62231445 C0.862107 14.66572146 -0.7316448 14.70739219 -2.32543945 14.74731445 C-4.61163908 14.80487807 -6.89759449 14.86861149 -9.18359375 14.93359375 C-10.2586039 14.95866249 -10.2586039 14.95866249 -11.35533142 14.98423767 C-14.71527382 14.80018654 -14.71527382 14.80018654 -17.5 16.25 C-17.66666667 19.75 -17.66666667 19.75 -17.5 23.25 C-15.25914092 25.49085908 -9.37064257 24.65414442 -6.19726562 24.76757812 C1.36381493 25.11817941 8.65001947 26.05001731 14.5 31.25 C18.44671274 37.12320841 20.42403354 42.20424428 19.5 49.25 C17.46863031 55.55793745 14.38605228 59.2297634 9 63 C4.25687867 65.37156066 -0.31149651 65.36995108 -5.55078125 65.34765625 C-6.20958786 65.3462413 -6.86839447 65.34482635 -7.54716492 65.34336853 C-9.63565762 65.337805 -11.72404011 65.32525947 -13.8125 65.3125 C-15.23502449 65.30748028 -16.65755066 65.3029182 -18.08007812 65.29882812 C-21.55346126 65.28870164 -25.02660836 65.26911959 -28.5 65.25 C-28.5 60.63 -28.5 56.01 -28.5 51.25 C-26.28539062 51.20101562 -24.07078125 51.15203125 -21.7890625 51.1015625 C-19.64771683 51.04757508 -17.50648442 50.99025896 -15.36523438 50.93261719 C-13.87541111 50.89430002 -12.38549446 50.85945192 -10.89550781 50.828125 C-8.75551952 50.78253271 -6.61617564 50.72453126 -4.4765625 50.6640625 C-3.18830566 50.6326416 -1.90004883 50.6012207 -0.57275391 50.56884766 C2.60481505 50.56541732 2.60481505 50.56541732 4.5 48.25 C4.83333333 45.25 4.83333333 45.25 4.5 42.25 C2.0887262 39.8387262 1.50362705 40.00184358 -1.7890625 39.9765625 C-2.64886719 39.9559375 -3.50867188 39.9353125 -4.39453125 39.9140625 C-6.19131485 39.88835744 -7.98821978 39.86992969 -9.78515625 39.859375 C-16.86685311 39.66996855 -22.37573664 38.28533745 -27.55859375 33.25 C-28.01363281 32.59 -28.46867188 31.93 -28.9375 31.25 C-29.41058594 30.59 -29.88367188 29.93 -30.37109375 29.25 C-32.74063677 25.05205527 -32.82303118 21.01470997 -32.5 16.25 C-30.36150538 10.04836559 -27.84820134 5.88862961 -22.44921875 2.12109375 C-15.60644268 -1.19974515 -7.4244431 -0.16213246 0 0 Z " fill="#85C131" transform="translate(659.5,436.75)"/>
<path d="M0 0 C4.23170951 -0.0999677 8.4627671 -0.17197673 12.6953125 -0.21972656 C14.13065587 -0.23966189 15.56591997 -0.26682074 17.00097656 -0.30175781 C27.50744341 -0.55086512 36.57997277 -0.07086486 44.875 7.125 C50.32517582 13.16786633 52.76352726 20.45815352 52.3828125 28.5546875 C51.25375833 35.76680904 47.46602605 42.19538806 42 47 C35.35678717 51.21933788 29.55164367 52.15209485 21.75 52.0625 C21.00492188 52.05798828 20.25984375 52.05347656 19.4921875 52.04882812 C17.6614236 52.03709246 15.83070127 52.0191585 14 52 C14.01160156 52.85464844 14.02320313 53.70929688 14.03515625 54.58984375 C14.04417969 55.69457031 14.05320312 56.79929687 14.0625 57.9375 C14.07410156 59.03964844 14.08570313 60.14179688 14.09765625 61.27734375 C14 64 14 64 13 65 C11.00200428 65.09873816 9.00042842 65.12971799 7 65.125 C5.906875 65.12757813 4.81375 65.13015625 3.6875 65.1328125 C1 65 1 65 0 64 C-0.09405142 62.0056827 -0.11743249 60.00800457 -0.11352539 58.01147461 C-0.11344986 56.73022202 -0.11337433 55.44896942 -0.11329651 54.12889099 C-0.10818909 52.72004152 -0.10297309 51.31119244 -0.09765625 49.90234375 C-0.09579202 48.46887766 -0.09436814 47.03541093 -0.09336853 45.60194397 C-0.08954372 41.82240043 -0.07971377 38.0428951 -0.06866455 34.2633667 C-0.05844963 30.40930702 -0.05387074 26.55524118 -0.04882812 22.70117188 C-0.03809146 15.13409713 -0.02101549 7.56705391 0 0 Z M14 14 C14 21.92 14 29.84 14 38 C17.774375 38.12375 17.774375 38.12375 21.625 38.25 C22.40568848 38.28641602 23.18637695 38.32283203 23.99072266 38.36035156 C29.10756939 38.44089091 31.95525116 37.37669723 36 34 C38.82792793 29.7581081 38.78122286 25.98126257 38 21 C36.31987353 17.87708835 34.21670326 15.60835163 31 14 C28.11426648 13.92800066 25.25934885 13.9072932 22.375 13.9375 C18.229375 13.9684375 18.229375 13.9684375 14 14 Z " fill="#85C231" transform="translate(712,437)"/>
<path d="M0 0 C1.3671875 1.37109375 1.3671875 1.37109375 3.0546875 3.62109375 C2.13084584 5.2953699 1.19018181 6.96037378 0.2421875 8.62109375 C-0.27988281 9.54921875 -0.80195312 10.47734375 -1.33984375 11.43359375 C-1.86964844 12.15546875 -2.39945313 12.87734375 -2.9453125 13.62109375 C-5.9453125 13.62109375 -5.9453125 13.62109375 -8.9453125 11.62109375 C-13.75961333 8.77119051 -18.50967487 8.87027186 -23.9453125 9.62109375 C-28.83384503 10.94455433 -31.97744477 13.16161587 -34.8828125 17.30859375 C-37.75369944 22.59141632 -38.75902787 27.39002513 -37.27734375 33.2734375 C-35.45614211 38.3356347 -33.69434199 41.77167605 -28.9453125 44.62109375 C-28.39359375 44.97945313 -27.841875 45.3378125 -27.2734375 45.70703125 C-23.94204643 47.01499351 -20.71295501 46.83187139 -17.1953125 46.74609375 C-13.6065625 46.68421875 -13.6065625 46.68421875 -9.9453125 46.62109375 C-9.9453125 40.35109375 -9.9453125 34.08109375 -9.9453125 27.62109375 C-5.6553125 27.62109375 -1.3653125 27.62109375 3.0546875 27.62109375 C3.29802292 31.83289946 3.47607609 36.03067041 3.6171875 40.24609375 C3.69259766 41.43589844 3.76800781 42.62570312 3.84570312 43.8515625 C4.06329333 52.50681715 4.06329333 52.50681715 1.12988281 55.74755859 C-6.60854035 60.98367114 -14.71676334 62.61474642 -23.9453125 61.62109375 C-33.26829838 59.38865087 -40.71800015 55.13489517 -46.2578125 47.24609375 C-51.39818217 38.81420671 -53.16780981 31.60866609 -51.9453125 21.62109375 C-49.18330406 11.77701239 -44.65865817 4.79303501 -36.0703125 -0.69140625 C-24.98105229 -6.9166646 -10.81875257 -7.66871417 0 0 Z " fill="#85C131" transform="translate(596.9453125,441.37890625)"/>
<path d="M0 0 C4.29 0 8.58 0 13 0 C13.01981934 1.15000488 13.03963867 2.30000977 13.06005859 3.48486328 C13.13636046 7.76779385 13.22503946 12.05039556 13.31738281 16.33300781 C13.35557122 18.18352751 13.39044151 20.03411887 13.421875 21.88476562 C13.46774641 24.55104107 13.52570359 27.21682748 13.5859375 29.8828125 C13.59748871 30.70492218 13.60903992 31.52703186 13.62094116 32.37405396 C13.76453248 38.01341545 14.1665964 42.88012709 18 47.3125 C21.66652876 50.40613364 24.24916571 50.23754171 29 50 C32.29392113 49.45863766 32.29392113 49.45863766 35 48 C37.6902504 43.37458659 37.34847368 38.29959421 37.4140625 33.10546875 C37.43342865 32.15811356 37.4527948 31.21075836 37.4727478 30.23469543 C37.53236371 27.21905423 37.57885705 24.20337448 37.625 21.1875 C37.66319633 19.13865554 37.70224902 17.08982686 37.7421875 15.04101562 C37.83805053 10.02747238 37.92214807 5.01385397 38 0 C42.62 0 47.24 0 52 0 C52.09953497 5.94070658 52.17178154 11.88091827 52.21972656 17.82226562 C52.23973216 19.83960435 52.2669456 21.8568859 52.30175781 23.87402344 C52.35076577 26.78855573 52.37307964 29.70231559 52.390625 32.6171875 C52.41127014 33.50614716 52.43191528 34.39510681 52.45318604 35.31100464 C52.45598038 43.26642048 50.15663145 49.63819216 45.875 56.3125 C40.42923212 61.4031091 33.79793945 64.69165432 26.28515625 65.12890625 C18.2976348 64.67832812 11.75126629 61.47169084 6 56 C0.39811974 48.92394073 -0.29176382 42.49254709 -0.1953125 33.7890625 C-0.1924826 32.82092621 -0.18965271 31.85278992 -0.18673706 30.85531616 C-0.17558696 27.77841572 -0.1504918 24.70181172 -0.125 21.625 C-0.11496352 19.5325563 -0.10583884 17.44010802 -0.09765625 15.34765625 C-0.07566453 10.23165749 -0.04117025 5.11587892 0 0 Z " fill="#85C231" transform="translate(287,437)"/>
<path d="M0 0 C14.85 0 29.7 0 45 0 C45 4.62 45 9.24 45 14 C34.44 14 23.88 14 13 14 C13 17.63 13 21.26 13 25 C19.27 25 25.54 25 32 25 C32 29.62 32 34.24 32 39 C25.73 39 19.46 39 13 39 C13 47.58 13 56.16 13 65 C8.71 65 4.42 65 0 65 C0 43.55 0 22.1 0 0 Z " fill="#85C131" transform="translate(953,437)"/>
<path d="M0 0 C17.16 0 34.32 0 52 0 C52 4.29 52 8.58 52 13 C51 14 51 14 49.23413086 14.11352539 C48.48526611 14.10828857 47.73640137 14.10305176 46.96484375 14.09765625 C46.15595703 14.09443359 45.34707031 14.09121094 44.51367188 14.08789062 C43.66353516 14.07951172 42.81339844 14.07113281 41.9375 14.0625 C41.08349609 14.05798828 40.22949219 14.05347656 39.34960938 14.04882812 C37.23304337 14.03700373 35.11651315 14.01906769 33 14 C33.00222061 14.6241832 33.00444122 15.24836639 33.00672913 15.89146423 C33.0287808 22.36342804 33.0439061 28.83538125 33.05493164 35.30737305 C33.05997349 37.72567172 33.06680678 40.14396733 33.07543945 42.56225586 C33.08751157 46.02979283 33.09322963 49.49728966 33.09765625 52.96484375 C33.10281754 54.05337143 33.10797882 55.14189911 33.11329651 56.26341248 C33.11337204 57.26437454 33.11344757 58.26533661 33.11352539 59.29663086 C33.115746 60.18265488 33.11796661 61.06867889 33.12025452 61.98155212 C33 64 33 64 32 65 C30.00200428 65.09873816 28.00042842 65.12971799 26 65.125 C24.906875 65.12757813 23.81375 65.13015625 22.6875 65.1328125 C20 65 20 65 19 64 C18.90673284 62.43452952 18.88254418 60.86487228 18.88647461 59.29663086 C18.88655014 58.29566879 18.88662567 57.29470673 18.88670349 56.26341248 C18.89186478 55.1748848 18.89702606 54.08635712 18.90234375 52.96484375 C18.9037587 51.85645645 18.90517365 50.74806915 18.90663147 49.60609436 C18.91224967 46.04986931 18.92480525 42.49370617 18.9375 38.9375 C18.94251266 36.53320403 18.94707597 34.12890708 18.95117188 31.72460938 C18.96222501 25.81638496 18.97898083 19.9081969 19 14 C17.71222656 14.01160156 16.42445313 14.02320313 15.09765625 14.03515625 C13.41927228 14.0445327 11.74088674 14.05363305 10.0625 14.0625 C8.78729492 14.07506836 8.78729492 14.07506836 7.48632812 14.08789062 C6.67744141 14.09111328 5.86855469 14.09433594 5.03515625 14.09765625 C4.2862915 14.10289307 3.53742676 14.10812988 2.76586914 14.11352539 C1 14 1 14 0 13 C0 8.71 0 4.42 0 0 Z " fill="#85C231" transform="translate(895,437)"/>
<path d="M0 0 C4.29 0 8.58 0 13 0 C13 16.83 13 33.66 13 51 C23.56 51 34.12 51 45 51 C45 55.62 45 60.24 45 65 C30.15 65 15.3 65 0 65 C0 43.55 0 22.1 0 0 Z " fill="#85C131" transform="translate(1074,437)"/>
<path d="M0 0 C4.62 0 9.24 0 14 0 C14.02255403 8.32729351 14.04091682 16.65456344 14.05181217 24.98187923 C14.05704026 28.84820118 14.06413654 32.71450121 14.07543945 36.58081055 C14.086271 40.30903401 14.0922774 44.03723634 14.09487724 47.76547432 C14.09673101 49.19089656 14.10035071 50.61631759 14.10573006 52.04173088 C14.11294393 54.03163408 14.11340808 56.02155834 14.11352539 58.01147461 C14.115746 59.14620712 14.11796661 60.28093964 14.12025452 61.45005798 C14 64 14 64 13 65 C11.00200428 65.09873816 9.00042842 65.12971799 7 65.125 C5.906875 65.12757813 4.81375 65.13015625 3.6875 65.1328125 C1 65 1 65 0 64 C-0.09405142 62.0056827 -0.11743249 60.00800457 -0.11352539 58.01147461 C-0.11344986 56.73022202 -0.11337433 55.44896942 -0.11329651 54.12889099 C-0.10818909 52.72004152 -0.10297309 51.31119244 -0.09765625 49.90234375 C-0.09579202 48.46887766 -0.09436814 47.03541093 -0.09336853 45.60194397 C-0.08954372 41.82240043 -0.07971377 38.0428951 -0.06866455 34.2633667 C-0.05844963 30.40930702 -0.05387074 26.55524118 -0.04882812 22.70117188 C-0.03809145 15.13409512 -0.02049497 7.56705777 0 0 Z " fill="#85C131" transform="translate(1125,437)"/>
<path d="M0 0 C4.29 0 8.58 0 13 0 C13.1098113 6.69848905 12.96073701 13.35786759 12 20 C11 21 11 21 8.96875 21.1328125 C8.1540625 21.13023437 7.339375 21.12765625 6.5 21.125 C5.6853125 21.12757813 4.870625 21.13015625 4.03125 21.1328125 C2 21 2 21 1 20 C-0.08516174 13.36845605 -0.09571197 6.69983804 0 0 Z " fill="#85C131" transform="translate(608,437)"/>
</svg>
